<svg width="319" height="342" viewBox="0 0 319 342" fill="none" xmlns="http://www.w3.org/2000/svg">
<g clip-path="url(#clip0)">
<g clip-path="url(#clip1)">
<path d="M312.582 111.459L168.511 16.1752C161.157 11.8535 152.937 11.9278 145.62 16.382L6.69016 111.331C0.535343 115.536 -0.0372458 121.808 0.00172688 124.308C0.0407245 126.81 0.813117 133.039 7.09707 136.829L72.3562 176.158C72.3562 176.158 72.4072 247.842 72.4876 248.362C75.2515 279.235 156.18 279.619 159.684 279.619C163.187 279.619 244.116 279.235 246.879 248.362C246.96 247.841 247.011 176.169 247.011 176.169L274.457 159.628V269.251C269.023 270.738 264.155 275.103 260.781 281.513C257.407 287.923 255.765 295.927 256.167 303.997C256.57 312.067 258.989 319.638 262.963 325.262C266.937 330.886 272.187 334.17 277.71 334.487C283.234 334.803 288.643 332.13 292.905 326.977C297.167 321.825 299.983 314.555 300.815 306.555C301.647 298.556 300.437 290.388 297.416 283.612C294.395 276.836 289.774 271.927 284.437 269.822V153.612L312.287 136.827C318.59 133.028 319.339 126.812 319.365 124.315C319.395 121.818 318.793 115.57 312.582 111.459ZM237.031 189.526C231.664 186.062 226.055 183.465 220.303 181.78C219.013 181.365 217.662 181.716 216.548 182.757C215.434 183.798 214.648 185.443 214.362 187.331C214.075 189.22 214.312 191.198 215.02 192.831C215.729 194.464 216.85 195.619 218.14 196.043C231.75 200.465 236.292 205.255 237.031 206.948V229.952C214.719 214.118 162.483 213.878 159.684 213.878C156.884 213.878 104.648 214.118 82.3365 229.952V206.407C83.4318 204.813 87.5033 200.391 100.886 196.043C102.176 195.619 103.297 194.464 104.006 192.831C104.714 191.198 104.951 189.22 104.664 187.331C104.378 185.443 103.592 183.798 102.478 182.757C101.364 181.716 100.013 181.365 98.7226 181.78C93.094 183.44 87.6013 185.969 82.3365 189.323V137.54C84.968 130.762 112.65 118.919 159.684 118.919C206.717 118.919 234.399 130.762 237.031 137.54V189.526ZM159.684 265.01C113.476 265.01 85.9451 253.579 82.4973 246.749C85.9451 239.919 113.476 228.487 159.684 228.487C205.891 228.487 233.422 239.919 236.87 246.749C233.422 253.579 205.891 265.01 159.684 265.01ZM291.091 301.533C291.091 305.145 290.36 308.676 288.989 311.679C287.618 314.683 285.67 317.024 283.39 318.406C281.111 319.788 278.603 320.15 276.183 319.446C273.763 318.741 271.54 317.002 269.795 314.448C268.05 311.894 266.862 308.64 266.38 305.097C265.899 301.555 266.146 297.883 267.09 294.545C268.034 291.208 269.633 288.356 271.685 286.349C273.737 284.343 276.149 283.272 278.616 283.272C281.923 283.277 285.094 285.203 287.433 288.626C289.772 292.05 291.087 296.691 291.091 301.533L291.091 301.533ZM247.011 160.369V137.18C247.011 104.684 163.248 104.31 159.684 104.31C156.119 104.31 72.3562 104.684 72.3562 137.18V160.358L11.8752 123.908L149.84 29.6178C154.52 26.9665 159.702 26.9208 164.403 29.4894L307.329 124.017L247.011 160.369Z" fill="#235952"/>
</g>
</g>
<defs>
<clipPath id="clip0">
<rect width="319" height="342" fill="white"/>
</clipPath>
<clipPath id="clip1">
<rect width="319.366" height="467.516" fill="white" transform="translate(0 -60.0628)"/>
</clipPath>
</defs>
</svg>
